<?xml version="1.0" encoding="UTF-8" standalone="no"?>
<!DOCTYPE svg PUBLIC "-//W3C//DTD SVG 1.1//EN"
 "http://www.w3.org/Graphics/SVG/1.1/DTD/svg11.dtd">
<!-- Generated by graphviz version 2.38.0 (20140413.2041)
 -->
<!-- Title: G Pages: 1 -->
<svg width="296pt" height="95pt"
 viewBox="0.00 0.00 295.82 95.00" xmlns="http://www.w3.org/2000/svg" xmlns:xlink="http://www.w3.org/1999/xlink">
<g id="graph0" class="graph" transform="scale(1 1) rotate(0) translate(4 91)">
<title>G</title>
<polygon fill="white" stroke="none" points="-4,4 -4,-91 291.823,-91 291.823,4 -4,4"/>
<g id="clust1" class="cluster"><title>cluster_Global</title>
<path fill="none" stroke="gray" d="M154.206,-8C154.206,-8 267.823,-8 267.823,-8 273.823,-8 279.823,-14 279.823,-20 279.823,-20 279.823,-67 279.823,-67 279.823,-73 273.823,-79 267.823,-79 267.823,-79 154.206,-79 154.206,-79 148.206,-79 142.206,-73 142.206,-67 142.206,-67 142.206,-20 142.206,-20 142.206,-14 148.206,-8 154.206,-8"/>
<text text-anchor="middle" x="211.014" y="-66.2" font-family="Times,serif" font-size="11.00" fill="gray">Global</text>
</g>
<!-- \\plgSystemTestlib -->
<g id="node1" class="node"><title>\\plgSystemTestlib</title>
<polygon fill="none" stroke="black" points="271.632,-52 150.397,-52 150.397,-16 271.632,-16 271.632,-52"/>
<text text-anchor="middle" x="211.014" y="-30.7" font-family="Courier,monospace" font-size="11.00">plgSystemTestlib</text>
</g>
<!-- \\JPlugin -->
<g id="node2" class="node"><title>\\JPlugin</title>
<ellipse fill="none" stroke="black" cx="39.1029" cy="-34" rx="39.206" ry="18"/>
<text text-anchor="middle" x="39.1029" y="-29.8" font-family="Times,serif" font-size="14.00" fill="gray">\JPlugin</text>
</g>
<!-- \\plgSystemTestlib&#45;&gt;\\JPlugin -->
<g id="edge1" class="edge"><title>\\plgSystemTestlib&#45;&gt;\\JPlugin</title>
<path fill="none" stroke="black" d="M150.11,-34C129.863,-34 107.531,-34 88.3084,-34"/>
<polygon fill="none" stroke="black" points="88.2757,-30.5001 78.2756,-34 88.2756,-37.5001 88.2757,-30.5001"/>
</g>
</g>
</svg>
